<svg data-v-fde0c5aa="" xmlns="http://www.w3.org/2000/svg" viewBox="0 0 300 300" class="iconLeft"><!----><defs data-v-fde0c5aa=""><!----></defs><rect data-v-fde0c5aa="" fill="#2E1435" x="0" y="0" width="300px" height="300px" class="logo-background-square"></rect><defs data-v-fde0c5aa=""><!----></defs><g data-v-fde0c5aa="" id="ef53a20b-b726-4bc4-a3c0-1c0c35bbb631" fill="#EAE8E7" transform="matrix(4.056434154510498,0,0,4.056434154510498,123.50098577359898,116.43300855945853)"><path d="M1.21 8.16L0.32 8.16L1.21 7.46L1.21 6.49L1.21 6.49Q1.58 6.23 1.74 6.09L1.74 6.09L1.74 6.09Q1.89 5.95 2.00 5.89L2.00 5.89L2.00 5.89Q2.11 5.83 2.23 5.76L2.23 5.76L2.23 5.76Q2.52 5.59 2.54 5.56L2.54 5.56L2.54 7.23L4.73 7.23L4.73 7.23Q4.64 7.23 4.28 7.55L4.28 7.55L4.28 7.55Q3.59 8.16 3.40 8.16L3.40 8.16L2.54 8.16L2.54 11.82L2.54 11.82Q2.54 13.08 3.27 13.28L3.27 13.28L3.27 13.28Q3.49 13.33 3.68 13.33L3.68 13.33L3.68 13.33Q3.99 13.33 4.21 13.24L4.21 13.24L4.21 13.24Q4.43 13.15 4.57 13.07L4.57 13.07L4.57 13.07Q4.16 13.71 3.40 14.04L3.40 14.04L3.40 14.04Q3.01 14.21 2.57 14.21L2.57 14.21L2.57 14.21Q2.12 14.21 1.87 14.05L1.87 14.05L1.87 14.05Q1.63 13.90 1.48 13.64L1.48 13.64L1.48 13.64Q1.21 13.18 1.21 12.41L1.21 12.41L1.21 8.16ZM7.04 10.53L7.04 12.59L7.04 12.59Q7.04 13.28 7.44 13.28L7.44 13.28L7.44 13.28Q7.57 13.28 7.85 13.16L7.85 13.16L7.85 13.16Q7.59 13.75 7.05 14.05L7.05 14.05L7.05 14.05Q6.78 14.21 6.47 14.19L6.47 14.19L6.47 14.19Q6.17 14.18 6.03 14.03L6.03 14.03L6.03 14.03Q5.90 13.88 5.82 13.67L5.82 13.67L5.82 13.67Q5.71 13.33 5.71 12.80L5.71 12.80L5.71 5.00L5.71 5.00Q5.71 4.27 5.46 4.03L5.46 4.03L5.46 4.03Q5.35 3.92 5.17 3.92L5.17 3.92L5.17 3.92Q4.87 3.92 4.53 4.02L4.53 4.02L4.53 4.02Q5.36 3.36 7.04 2.30L7.04 2.30L7.04 8.57L7.04 8.57Q7.90 7.82 8.79 7.55L8.79 7.55L8.79 7.55Q9.12 7.44 9.43 7.44L9.43 7.44L9.43 7.44Q9.73 7.44 10.01 7.54L10.01 7.54L10.01 7.54Q10.29 7.64 10.51 7.82L10.51 7.82L10.51 7.82Q10.99 8.22 10.99 8.83L10.99 8.83L10.99 12.30L10.99 12.30Q10.99 13.21 11.43 13.30L11.43 13.30L11.43 13.30Q11.55 13.33 11.69 13.33L11.69 13.33L11.69 13.33Q11.90 13.33 12.28 13.16L12.28 13.16L12.28 13.16Q11.72 13.88 10.96 14.11L10.96 14.11L10.96 14.11Q10.71 14.19 10.41 14.19L10.41 14.19L10.41 14.19Q10.11 14.19 9.95 14.05L9.95 14.05L9.95 14.05Q9.78 13.90 9.72 13.69L9.72 13.69L9.72 13.69Q9.66 13.47 9.66 13.21L9.66 13.21L9.66 10.14L9.66 10.14Q9.66 9.10 9.34 8.74L9.34 8.74L9.34 8.74Q9.04 8.39 8.25 8.39L8.25 8.39L8.25 8.39Q7.19 8.39 7.07 9.84L7.07 9.84L7.07 9.84Q7.04 10.21 7.04 10.53L7.04 10.53ZM17.41 9.28L17.41 12.06L17.40 12.54L17.40 12.54Q17.40 13.07 17.70 13.21L17.70 13.21L17.70 13.21Q17.81 13.27 17.96 13.27L17.96 13.27L17.96 13.27Q18.20 13.27 18.46 13.16L18.46 13.16L18.46 13.16Q18.20 13.27 18.01 13.45L18.01 13.45L18.01 13.45Q17.81 13.62 17.62 13.79L17.62 13.79L17.62 13.79Q17.12 14.21 16.63 14.21L16.63 14.21L16.63 14.21Q16.13 14.21 16.09 13.63L16.09 13.63L16.09 13.63Q16.08 13.48 16.08 13.33L16.08 13.33L16.08 13.33Q14.85 14.18 13.82 14.18L13.82 14.18L13.82 14.18Q12.95 14.18 12.62 13.66L12.62 13.66L12.62 13.66Q12.50 13.47 12.50 13.13L12.50 13.13L12.50 13.13Q12.50 12.80 12.70 12.46L12.70 12.46L12.70 12.46Q12.91 12.12 13.22 11.84L13.22 11.84L13.22 11.84Q13.78 11.32 14.57 10.99L14.57 10.99L14.57 10.99Q15.16 10.73 16.08 10.70L16.08 10.70L16.08 10.40L16.08 10.40Q16.08 9.31 15.89 8.93L15.89 8.93L15.89 8.93Q15.69 8.54 15.37 8.36L15.37 8.36L15.37 8.36Q15.06 8.18 14.64 8.18L14.64 8.18L14.64 8.18Q13.92 8.18 13.37 8.46L13.37 8.46L13.37 8.46Q14.12 7.84 14.47 7.64L14.47 7.64L14.47 7.64Q15.19 7.24 15.77 7.24L15.77 7.24L15.77 7.24Q16.36 7.24 16.65 7.41L16.65 7.41L16.65 7.41Q16.95 7.58 17.12 7.86L17.12 7.86L17.12 7.86Q17.41 8.35 17.41 9.28L17.41 9.28ZM14.20 13.04L14.20 13.04L14.20 13.04Q14.36 13.16 14.58 13.21L14.58 13.21L14.58 13.21Q14.80 13.27 15.23 13.27L15.23 13.27L15.23 13.27Q15.66 13.27 16.08 13.06L16.08 13.06L16.08 11.63L14.98 11.63L14.98 11.63Q14.38 11.63 13.94 11.71L13.94 11.71L13.94 11.71Q13.85 12.00 13.85 12.27L13.85 12.27L13.85 12.27Q13.85 12.54 13.94 12.73L13.94 12.73L13.94 12.73Q14.03 12.92 14.20 13.04ZM22.42 13.23L22.42 13.23L22.42 13.23Q22.20 13.41 21.99 13.59L21.99 13.59L21.99 13.59Q21.79 13.77 21.57 13.90L21.57 13.90L21.57 13.90Q21.08 14.22 20.56 14.22L20.56 14.22L20.56 14.22Q19.81 14.22 19.74 13.18L19.74 13.18L19.74 13.18Q19.73 12.90 19.73 12.63L19.73 12.63L19.73 5.32L19.73 5.32Q19.73 4.38 19.30 4.10L19.30 4.10L19.30 4.10Q19.13 3.98 18.96 3.98L18.96 3.98L18.96 3.98Q18.74 3.98 18.67 3.99L18.67 3.99L18.67 3.99Q18.59 4.00 18.54 4.01L18.54 4.01L18.54 4.01Q19.52 3.32 19.78 3.19L19.78 3.19L19.78 3.19Q20.13 3.00 20.49 2.82L20.49 2.82L20.49 2.82Q20.86 2.64 21.05 2.54L21.05 2.54L21.05 11.97L21.05 11.97Q21.05 12.25 21.06 12.49L21.06 12.49L21.06 12.49Q21.06 12.73 21.14 12.91L21.14 12.91L21.14 12.91Q21.31 13.28 22.00 13.28L22.00 13.28L22.00 13.28Q22.22 13.28 22.42 13.23ZM28.10 12.82L28.10 12.82L28.10 12.82Q27.16 13.86 25.77 14.12L25.77 14.12L25.77 14.12Q25.45 14.18 24.98 14.18L24.98 14.18L24.98 14.18Q24.51 14.18 24.09 13.91L24.09 13.91L24.09 13.91Q23.67 13.65 23.41 13.23L23.41 13.23L23.41 13.23Q22.90 12.43 22.90 11.27L22.90 11.27L22.90 11.27Q22.90 10.50 23.49 9.57L23.49 9.57L23.49 9.57Q24.06 8.65 24.89 8.04L24.89 8.04L24.89 8.04Q25.78 7.38 26.57 7.38L26.57 7.38L26.57 7.38Q26.98 7.38 27.26 7.68L27.26 7.68L27.26 7.68Q27.52 7.98 27.52 8.35L27.52 8.35L27.52 8.35Q27.52 8.73 27.36 9.05L27.36 9.05L27.36 9.05Q27.19 9.37 26.93 9.67L26.93 9.67L26.93 9.67Q26.67 9.97 26.33 10.24L26.33 10.24L26.33 10.24Q25.99 10.52 25.63 10.76L25.63 10.76L25.63 10.76Q25.14 11.10 24.38 11.53L24.38 11.53L24.38 11.53Q24.60 12.36 25.15 12.81L25.15 12.81L25.15 12.81Q25.70 13.25 26.58 13.25L26.58 13.25L26.58 13.25Q27.32 13.25 28.10 12.82ZM26.03 10.08L26.03 10.08L26.03 10.08Q26.22 9.78 26.22 9.50L26.22 9.50L26.22 9.50Q26.22 9.22 26.15 9.03L26.15 9.03L26.15 9.03Q26.09 8.83 25.98 8.68L25.98 8.68L25.98 8.68Q25.71 8.34 25.29 8.34L25.29 8.34L25.29 8.34Q24.25 8.34 24.25 10.46L24.25 10.46L24.25 10.46Q24.25 10.83 24.31 11.20L24.31 11.20L24.31 11.20Q25.51 10.87 26.03 10.08ZM31.87 8.78L31.87 8.78L31.87 8.78Q32.00 8.68 32.00 8.57L32.00 8.57L32.00 8.57Q32.00 8.46 31.87 8.40L31.87 8.40L31.87 8.40Q31.74 8.34 31.57 8.31L31.57 8.31L31.57 8.31Q31.30 8.25 31.07 8.25L31.07 8.25L31.07 8.25Q30.84 8.25 30.72 8.27L30.72 8.27L30.72 8.27Q30.59 8.30 30.50 8.36L30.50 8.36L30.50 8.36Q30.31 8.49 30.31 8.82L30.31 8.82L30.31 8.82Q30.31 9.15 30.45 9.35L30.45 9.35L30.45 9.35Q30.60 9.56 30.83 9.71L30.83 9.71L30.83 9.71Q31.07 9.85 31.37 9.95L31.37 9.95L31.37 9.95Q31.67 10.04 31.98 10.13L31.98 10.13L31.98 10.13Q32.29 10.23 32.59 10.34L32.59 10.34L32.59 10.34Q32.89 10.45 33.13 10.62L33.13 10.62L33.13 10.62Q33.65 11.01 33.65 11.68L33.65 11.68L33.65 11.68Q33.65 12.34 33.02 12.97L33.02 12.97L33.02 12.97Q32.48 13.51 31.60 13.89L31.60 13.89L31.60 13.89Q30.78 14.25 30.13 14.25L30.13 14.25L30.13 14.25Q29.35 14.25 28.88 13.92L28.88 13.92L28.88 13.92Q28.71 13.79 28.71 13.60L28.71 13.60L28.71 13.60Q28.71 13.41 28.89 13.24L28.89 13.24L28.89 13.24Q29.07 13.08 29.31 12.94L29.31 12.94L29.31 12.94Q29.54 12.80 29.78 12.68L29.78 12.68L29.78 12.68Q30.02 12.55 30.15 12.41L30.15 12.41L30.15 12.41Q30.02 12.54 30.02 12.71L30.02 12.71L30.02 12.71Q30.02 12.89 30.21 13.01L30.21 13.01L30.21 13.01Q30.41 13.13 30.67 13.19L30.67 13.19L30.67 13.19Q31.12 13.30 31.53 13.30L31.53 13.30L31.53 13.30Q31.95 13.30 32.14 13.15L32.14 13.15L32.14 13.15Q32.33 13.00 32.33 12.63L32.33 12.63L32.33 12.63Q32.33 12.27 32.18 12.04L32.18 12.04L32.18 12.04Q32.04 11.81 31.81 11.65L31.81 11.65L31.81 11.65Q31.58 11.48 31.27 11.37L31.27 11.37L31.27 11.37Q30.97 11.26 30.66 11.15L30.66 11.15L30.66 11.15Q30.35 11.05 30.05 10.94L30.05 10.94L30.05 10.94Q29.75 10.83 29.52 10.67L29.52 10.67L29.52 10.67Q29.00 10.32 29.00 9.76L29.00 9.76L29.00 9.76Q29.00 9.23 29.63 8.62L29.63 8.62L29.63 8.62Q30.17 8.10 30.77 7.81L30.77 7.81L30.77 7.81Q31.79 7.31 32.31 7.31L32.31 7.31L32.31 7.31Q32.85 7.31 33.09 7.43L33.09 7.43L33.09 7.43Q33.33 7.55 33.33 7.63L33.33 7.63L33.33 7.63Q33.33 7.72 33.27 7.79L33.27 7.79L33.27 7.79Q33.22 7.85 33.14 7.91L33.14 7.91L33.14 7.91Q33.06 7.97 32.98 8.02L32.98 8.02L32.98 8.02Q32.89 8.07 32.74 8.16L32.74 8.16L32.74 8.16Q32.59 8.26 32.34 8.42L32.34 8.42L32.34 8.42Q32.09 8.58 31.87 8.78Z"></path></g><defs data-v-fde0c5aa=""><!----></defs><g data-v-fde0c5aa="" id="d9cf7c96-2f36-4346-b251-fd1de9df9190" stroke="none" fill="#EAE8E7" transform="matrix(1.212052822113037,0,0,1.212052822113037,37.5758942951798,111.2085083982333)"><path d="M47 42.605a12.873 12.873 0 0 0-2.168-7.16A10.878 10.878 0 0 1 43 29.4a1 1 0 1 0-2 0 12.873 12.873 0 0 0 2.168 7.16 10.871 10.871 0 0 1 1.821 5.74 8.927 8.927 0 0 0-3.021-1.786 3.794 3.794 0 0 0-5.751-2.75l-.756.463c-.48.217-.97.4-1.461.583v-1.434A12 12 0 0 0 40 27v-.1a5.009 5.009 0 0 0 4-4.9 2.994 2.994 0 0 0-2.027-2.824 14 14 0 0 0-1.832-6.13 1 1 0 0 0-1.735 1A11.976 11.976 0 0 1 39.934 19H39a3.546 3.546 0 0 1-3.263-2.151l-.313-.732a4.887 4.887 0 0 0-6.342-2.627 2.892 2.892 0 0 1-2.164 0 4.883 4.883 0 0 0-6.342 2.627 1 1 0 1 0 1.839.787 2.9 2.9 0 0 1 3.76-1.557 4.891 4.891 0 0 0 3.65 0 2.9 2.9 0 0 1 3.761 1.553l.313.733A5.542 5.542 0 0 0 38 20.91V27a10 10 0 0 1-20 0v-6.091a5.6 5.6 0 0 0 1.44-.474 1 1 0 1 0-.88-1.8A3.566 3.566 0 0 1 17 19h-.949a11.976 11.976 0 0 1 20.043-7.839 1 1 0 0 0 1.351-1.475 14.049 14.049 0 0 0-4.452-2.757 4.994 4.994 0 0 0-9.987.008 14.006 14.006 0 0 0-8.964 12.234A3 3 0 0 0 12 22a4.952 4.952 0 0 0 1 2.969v5.5a9.768 9.768 0 0 1-.893 4.039 3.747 3.747 0 0 1-.107-.884A5.63 5.63 0 0 0 6.376 28 4.381 4.381 0 0 0 2 32.376V33a1 1 0 0 0 1 1 3 3 0 0 1 3 3 5.007 5.007 0 0 0 4.66 4.989c.134.1.275.176.41.269A8.918 8.918 0 0 0 8 49v12a1 1 0 0 0 2 0V49a6.941 6.941 0 0 1 2.854-5.614A26.357 26.357 0 0 0 19 45.963V50c0 4.721 3.849 10 9 10a7.944 7.944 0 0 0 4.47-1.439 1 1 0 0 0-1.127-1.652A5.953 5.953 0 0 1 28 58c-3.942 0-7-4.3-7-8v-3.566q1 .194 2 .31V50a5 5 0 0 0 10 0v-4.038q1.01-.281 2-.642V50a8.547 8.547 0 0 1-1.231 4.288 1 1 0 0 0 1.718 1.024A10.571 10.571 0 0 0 37 50v-5.507a26.616 26.616 0 0 0 3.881-2.208A7.024 7.024 0 0 1 46 49v12a1 1 0 0 0 2 0V49a8.906 8.906 0 0 0-1-4.08zm-7-17.776V21h1a1 1 0 0 1 1 1 3.006 3.006 0 0 1-2 2.829zM28 4a3 3 0 0 1 2.915 2.32 13.653 13.653 0 0 0-5.827-.011A3 3 0 0 1 28 4zm4 34.3v1.154a23.053 23.053 0 0 1-8 .71V38.3a11.779 11.779 0 0 0 8 0zM15 21h1v3.829A3.006 3.006 0 0 1 14 22a1 1 0 0 1 1-1zM8 37a5.008 5.008 0 0 0-3.984-4.9 2.378 2.378 0 0 1 2.36-2.1 3.573 3.573 0 0 1 .416.042A.986.986 0 0 0 6 31a1 1 0 0 0 2 0 .985.985 0 0 0-.381-.767A3.62 3.62 0 0 1 10 33.624a5.521 5.521 0 0 0 2.51 4.689c.233.15.478.283.717.425l-.374.939a1 1 0 1 0 1.858.74L15 39.7c.2.1.388.2.586.294a1 1 0 0 0 .834-1.818 22.9 22.9 0 0 1-2.827-1.545c-.059-.038-.113-.083-.169-.125.107-.28.219-.547.341-.791A11.791 11.791 0 0 0 15 30.466v-3.89a4.91 4.91 0 0 0 1 .323V27a12 12 0 0 0 6 10.376V39.9a22.787 22.787 0 0 1-2.351-.53l-.161-.053a1 1 0 0 0-1.247.609l-.621 1.7a1 1 0 0 0 1.879.685l.3-.83a24.767 24.767 0 0 0 2.574.5l-.126.815a1 1 0 0 0 .834 1.142 1.031 1.031 0 0 0 .155.012 1 1 0 0 0 .987-.847l.141-.909a25.142 25.142 0 0 0 2.636.027v.8a1 1 0 0 0 2 0v-.955a25 25 0 0 0 2.752-.486l.128.766a1 1 0 0 0 .986.836 1.031 1.031 0 0 0 .165-.014 1 1 0 0 0 .823-1.151l-.164-.98a25.27 25.27 0 0 0 1.587-.575l.215.611a1 1 0 0 0 .944.669 1.017 1.017 0 0 0 .332-.057 1 1 0 0 0 .611-1.276l-.291-.826.176-.108a1.8 1.8 0 0 1 2.675 1.059 24.266 24.266 0 0 1-28.348-.336A1 1 0 0 0 11 40a3 3 0 0 1-3-3zm20.723 9.776L28 48.461l-.676-1.577q.701-.036 1.399-.108zM28 53a3 3 0 0 1-3-3v-3.1l.156.006 1.006 2.346a2 2 0 0 0 3.676 0L31 46.539V50a3 3 0 0 1-3 3z"></path><path d="M25.447 23.105a5.505 5.505 0 0 0-4.894 0 1 1 0 0 0 .894 1.79 3.484 3.484 0 0 1 3.106 0 1 1 0 1 0 .894-1.79zM31.447 24.9a3.484 3.484 0 0 1 3.106 0 1 1 0 1 0 .894-1.79 5.508 5.508 0 0 0-4.894 0 1 1 0 1 0 .894 1.79zM25.553 29.9l2 1a1 1 0 1 0 .894-1.79l-1.105-.552 1.558-3.111a1 1 0 0 0-1.79-.894l-2 4a1 1 0 0 0 .443 1.347z"></path><path d="M24.447 31.105a1 1 0 0 0-.894 1.79 10 10 0 0 0 8.894 0 1 1 0 0 0-.894-1.79 7.979 7.979 0 0 1-7.106 0zM28 17a1 1 0 0 0-1 1v2a1 1 0 0 0 2 0v-2a1 1 0 0 0-1-1zM40 51a1 1 0 0 0-1 1v9a1 1 0 0 0 2 0v-9a1 1 0 0 0-1-1zM16 51a1 1 0 0 0-1 1v9a1 1 0 0 0 2 0v-9a1 1 0 0 0-1-1zM60.207 29.793a1.591 1.591 0 0 1-.2-2l.823-1.235a1 1 0 1 0-1.664-1.11l-.823 1.235a3.6 3.6 0 0 0 .448 4.527 1.622 1.622 0 0 1 .144 2.085 1.588 1.588 0 0 1-1.32.705H55v-1.237A4.024 4.024 0 0 0 57 29c0-1.879-1.923-5.147-2.142-5.513a1.038 1.038 0 0 0-1.716 0C52.923 23.853 51 27.121 51 29a4.024 4.024 0 0 0 2 3.763V34h-2.615a1.586 1.586 0 0 1-1.32-.7l-.056-.085a1.591 1.591 0 0 1 .2-2 3.6 3.6 0 0 0 .448-4.527l-.823-1.235a1 1 0 0 0-1.664 1.11l.823 1.235a1.591 1.591 0 0 1-.2 2 3.6 3.6 0 0 0-.45 4.524l.056.086A3.585 3.585 0 0 0 50.385 36h.653l.115 3H51a1 1 0 0 0 0 2h.23L52 61.039A1 1 0 0 0 53 62h2a1 1 0 0 0 1-.961L56.77 41H57a1 1 0 0 0 0-2h-.153l.115-3h.653a3.661 3.661 0 0 0 2.592-6.207zM54 26.1a8.617 8.617 0 0 1 1 2.9c0 1.221-.592 2-1 2s-1-.779-1-2a8.617 8.617 0 0 1 1-2.9zm.038 33.9h-.076l-.731-19h1.538zm.808-21h-1.692l-.115-3h1.922z"></path></g><!----></svg>